<svg width="16" height="16" viewBox="0 0 16 16" fill="none" xmlns="http://www.w3.org/2000/svg">
<path d="M5.59998 11.332L7.99998 8.93203L10.4 11.332L11.3333 10.3987L8.93331 7.9987L11.3333 5.5987L10.4 4.66536L7.99998 7.06536L5.59998 4.66536L4.66665 5.5987L7.06665 7.9987L4.66665 10.3987L5.59998 11.332ZM7.99998 14.6654C7.07776 14.6654 6.21109 14.4904 5.39998 14.1404C4.58887 13.7904 3.88331 13.3154 3.28331 12.7154C2.68331 12.1154 2.20831 11.4098 1.85831 10.5987C1.50831 9.78759 1.33331 8.92092 1.33331 7.9987C1.33331 7.07648 1.50831 6.20981 1.85831 5.3987C2.20831 4.58759 2.68331 3.88203 3.28331 3.28203C3.88331 2.68203 4.58887 2.20703 5.39998 1.85703C6.21109 1.50703 7.07776 1.33203 7.99998 1.33203C8.9222 1.33203 9.78887 1.50703 10.6 1.85703C11.4111 2.20703 12.1166 2.68203 12.7166 3.28203C13.3166 3.88203 13.7916 4.58759 14.1416 5.3987C14.4916 6.20981 14.6666 7.07648 14.6666 7.9987C14.6666 8.92092 14.4916 9.78759 14.1416 10.5987C13.7916 11.4098 13.3166 12.1154 12.7166 12.7154C12.1166 13.3154 11.4111 13.7904 10.6 14.1404C9.78887 14.4904 8.9222 14.6654 7.99998 14.6654Z" fill="#2B2B33"/>
</svg>
