<svg width="83" height="62" viewBox="0 0 83 62" fill="none" xmlns="http://www.w3.org/2000/svg">
<path d="M14.6098 46.7349L0 35.8855L9.98302 17.0437L44.6907 2.36719L69.5692 7.51598L67.7413 31.5733L14.6098 46.7349Z" fill="#FC96FC"/>
<path d="M23.0118 18.5926C23.0118 18.5926 13.9164 9.97272 14.5052 9.52326C15.094 9.0738 24.8441 0 24.8441 0L30.1037 17.0484L23.0118 18.5926Z" fill="#F87AF8"/>
<path d="M0 35.8869L68.4531 22.1895L67.7413 31.5748L14.6098 46.7363L0 35.8869Z" fill="#F87AF8"/>
<path d="M59.3997 25.2968L61.1485 13.8926L82.626 32.5718L72.7239 35.3464L59.3997 25.2968Z" fill="#7E57FF"/>
<path d="M41.0166 52.8174L47.2646 48.8633L49.4043 52.2422L38.0938 59.4023L37.0283 53.2275L23.0332 61.71L20.9609 58.2891L39.9736 46.7676L41.0166 52.8174Z" fill="#F87AF8"/>
<path d="M43.6719 46.9868L47.4203 29.468L59.3989 25.2988L72.7231 35.3485L69.8602 47.9369L51.3461 56.358L48.3859 53.6631L60.7919 42.7558L55.352 37.5036L45.7196 49.81L43.6719 46.9868Z" fill="#6B4AE6"/>
<path d="M48.3865 53.6596L45.7202 49.8065L55.3526 37.5L60.7924 42.7523L48.3865 53.6596Z" fill="#CDE94C"/>
</svg>
