<svg width="134" height="88" viewBox="0 0 134 88" fill="none" xmlns="http://www.w3.org/2000/svg">
<path d="M133.997 64.0967L18.8438 68.6522V0L133.997 3.41667V64.0967Z" fill="#E5DDFF"/>
<path d="M65.623 13.1523H31.6797V15.191H65.623V13.1523Z" fill="#CBBCFF"/>
<path d="M83.8006 9.96484L86.9214 20.1465L80.2826 26.6837L75.4141 44.9173L88.6577 56.2379H105.533L117.891 43.8923L113.727 26.1485L105.919 19.8846L108.563 10.614L83.8006 9.96484Z" fill="#7E57FF"/>
<path d="M85.0766 39.4755H72.1734L68.5078 27.4032L76.6106 21.2305L87.369 24.2485L86.1434 28.6446L77.5639 26.2416L73.7962 29.1116L75.5439 34.9085H85.0766V39.4755Z" fill="#7E57FF"/>
<path d="M121.039 39.4755H108.125V34.9085H117.658L119.417 29.1116L115.649 26.2416L107.069 28.6446L105.844 24.2485L116.602 21.2305L124.694 27.4032L121.039 39.4755Z" fill="#7E57FF"/>
<path d="M115.202 32.4375L102.355 44.02L90.9274 46.89L75.4141 44.9197L88.6577 56.2403H105.533L117.891 43.8947L115.202 32.4375Z" fill="#6B4AE6"/>
<path d="M102.182 50.291L98.2891 57.6937L100.309 66.7707L106.846 72.169L115.289 72.6587L123.891 66.5201L124.47 55.1198L118.444 47.8993L108.423 46.7148L102.182 50.291Z" fill="#F87AF8"/>
<path d="M110.705 62.5242L107.301 58.3673L104.906 61.2942L111.023 66.4534L119.364 56.2148L115.642 53.5156L110.705 62.5242Z" fill="#D9F172"/>
<path d="M57.7711 24L0 25.9722V86.0318L60.7538 88.004L57.7711 24Z" fill="#CBBCFF"/>
<path d="M33.5853 73.3711H10.6719V75.6488H33.5853V73.3711Z" fill="#B09BFF"/>
<path d="M16.0156 63.9326H41.7644L40.3275 34.4883H16.8495L16.0156 63.9326Z" fill="#7E57FF"/>
<path d="M22.9844 56.6748L33.8097 47.9766L36.9752 58.9766L22.9844 56.6748Z" fill="#CDE94C"/>
<path d="M27.3536 48.4098L28.8931 40.457L21.5547 42.2385L27.3536 48.4098Z" fill="#CDE94C"/>
</svg>
