<svg width="14" height="18" viewBox="0 0 14 18" fill="none" xmlns="http://www.w3.org/2000/svg">
<path d="M0 17.5V5.83333H2.5V4.16667C2.5 3.01389 2.90625 2.03125 3.71875 1.21875C4.53125 0.40625 5.51389 0 6.66667 0C7.81944 0 8.80208 0.40625 9.61458 1.21875C10.4271 2.03125 10.8333 3.01389 10.8333 4.16667V5.83333H13.3333V17.5H0ZM7.84375 12.8438C8.17014 12.5174 8.33333 12.125 8.33333 11.6667C8.33333 11.2083 8.17014 10.816 7.84375 10.4896C7.51736 10.1632 7.125 10 6.66667 10C6.20833 10 5.81597 10.1632 5.48958 10.4896C5.16319 10.816 5 11.2083 5 11.6667C5 12.125 5.16319 12.5174 5.48958 12.8438C5.81597 13.1701 6.20833 13.3333 6.66667 13.3333C7.125 13.3333 7.51736 13.1701 7.84375 12.8438ZM4.16667 5.83333H9.16667V4.16667C9.16667 3.47222 8.92361 2.88194 8.4375 2.39583C7.95139 1.90972 7.36111 1.66667 6.66667 1.66667C5.97222 1.66667 5.38194 1.90972 4.89583 2.39583C4.40972 2.88194 4.16667 3.47222 4.16667 4.16667V5.83333Z" fill="white"/>
</svg>
