<svg width="20" height="20" viewBox="0 0 20 20" fill="none" xmlns="http://www.w3.org/2000/svg">
<path d="M9.16675 14.168H10.8334V9.16797H9.16675V14.168ZM10.5938 7.26172C10.7536 7.102 10.8334 6.90408 10.8334 6.66797C10.8334 6.43186 10.7536 6.23394 10.5938 6.07422C10.4341 5.9145 10.2362 5.83464 10.0001 5.83464C9.76397 5.83464 9.56605 5.9145 9.40633 6.07422C9.24661 6.23394 9.16675 6.43186 9.16675 6.66797C9.16675 6.90408 9.24661 7.102 9.40633 7.26172C9.56605 7.42144 9.76397 7.5013 10.0001 7.5013C10.2362 7.5013 10.4341 7.42144 10.5938 7.26172ZM10.0001 18.3346C8.8473 18.3346 7.76397 18.1159 6.75008 17.6784C5.73619 17.2409 4.85425 16.6471 4.10425 15.8971C3.35425 15.1471 2.7605 14.2652 2.323 13.2513C1.8855 12.2374 1.66675 11.1541 1.66675 10.0013C1.66675 8.84852 1.8855 7.76519 2.323 6.7513C2.7605 5.73741 3.35425 4.85547 4.10425 4.10547C4.85425 3.35547 5.73619 2.76172 6.75008 2.32422C7.76397 1.88672 8.8473 1.66797 10.0001 1.66797C11.1529 1.66797 12.2362 1.88672 13.2501 2.32422C14.264 2.76172 15.1459 3.35547 15.8959 4.10547C16.6459 4.85547 17.2397 5.73741 17.6772 6.7513C18.1147 7.76519 18.3334 8.84852 18.3334 10.0013C18.3334 11.1541 18.1147 12.2374 17.6772 13.2513C17.2397 14.2652 16.6459 15.1471 15.8959 15.8971C15.1459 16.6471 14.264 17.2409 13.2501 17.6784C12.2362 18.1159 11.1529 18.3346 10.0001 18.3346Z" fill="#2B2B33"/>
</svg>
