<svg width="20" height="20" viewBox="0 0 20 20" fill="none" xmlns="http://www.w3.org/2000/svg">
<path d="M9.16669 14.168H10.8334V9.16797H9.16669V14.168ZM10.5938 7.26172C10.7535 7.102 10.8334 6.90408 10.8334 6.66797C10.8334 6.43186 10.7535 6.23394 10.5938 6.07422C10.434 5.9145 10.2361 5.83464 10 5.83464C9.76391 5.83464 9.56599 5.9145 9.40627 6.07422C9.24655 6.23394 9.16669 6.43186 9.16669 6.66797C9.16669 6.90408 9.24655 7.102 9.40627 7.26172C9.56599 7.42144 9.76391 7.5013 10 7.5013C10.2361 7.5013 10.434 7.42144 10.5938 7.26172ZM10 18.3346C8.84724 18.3346 7.76391 18.1159 6.75002 17.6784C5.73613 17.2409 4.85419 16.6471 4.10419 15.8971C3.35419 15.1471 2.76044 14.2652 2.32294 13.2513C1.88544 12.2374 1.66669 11.1541 1.66669 10.0013C1.66669 8.84852 1.88544 7.76519 2.32294 6.7513C2.76044 5.73741 3.35419 4.85547 4.10419 4.10547C4.85419 3.35547 5.73613 2.76172 6.75002 2.32422C7.76391 1.88672 8.84724 1.66797 10 1.66797C11.1528 1.66797 12.2361 1.88672 13.25 2.32422C14.2639 2.76172 15.1459 3.35547 15.8959 4.10547C16.6459 4.85547 17.2396 5.73741 17.6771 6.7513C18.1146 7.76519 18.3334 8.84852 18.3334 10.0013C18.3334 11.1541 18.1146 12.2374 17.6771 13.2513C17.2396 14.2652 16.6459 15.1471 15.8959 15.8971C15.1459 16.6471 14.2639 17.2409 13.25 17.6784C12.2361 18.1159 11.1528 18.3346 10 18.3346Z" fill="#2B2B33"/>
</svg>
