<svg width="16" height="16" viewBox="0 0 16 16" fill="none" xmlns="http://www.w3.org/2000/svg">
<path d="M6.11699 7.21602C5.59477 6.69379 5.33366 6.06602 5.33366 5.33268C5.33366 4.59935 5.59477 3.97157 6.11699 3.44935C6.63921 2.92713 7.26699 2.66602 8.00033 2.66602C8.73366 2.66602 9.36144 2.92713 9.88366 3.44935C10.4059 3.97157 10.667 4.59935 10.667 5.33268C10.667 6.06602 10.4059 6.69379 9.88366 7.21602C9.36144 7.73824 8.73366 7.99935 8.00033 7.99935C7.26699 7.99935 6.63921 7.73824 6.11699 7.21602ZM2.66699 13.3327V11.466C2.66699 11.0882 2.76421 10.741 2.95866 10.4243C3.1531 10.1077 3.41144 9.86602 3.73366 9.69935C4.42255 9.3549 5.12255 9.09657 5.83366 8.92435C6.54477 8.75213 7.26699 8.66602 8.00033 8.66602C8.73366 8.66602 9.45588 8.75213 10.167 8.92435C10.8781 9.09657 11.5781 9.3549 12.267 9.69935C12.5892 9.86602 12.8475 10.1077 13.042 10.4243C13.2364 10.741 13.3337 11.0882 13.3337 11.466V13.3327H2.66699Z" fill="white"/>
</svg>
