<svg width="194" height="100" viewBox="0 0 194 100" fill="none" xmlns="http://www.w3.org/2000/svg">
<path d="M159.29 80.474V49.4448H152.516V42.0848H159.29V26.4448L168.407 24.4375V42.0848H177.272V49.4448H168.407V80.474H159.29Z" fill="#7E57FF"/>
<path d="M136.596 80.4724V42.0832H145.963V80.4724H136.596ZM141.28 34.8904C139.551 34.8904 138.101 34.305 136.931 33.134C135.815 31.9631 135.258 30.5134 135.258 28.7849C135.258 27.2237 135.815 25.8855 136.931 24.7704C138.101 23.6552 139.551 23.0977 141.28 23.0977C143.008 23.0977 144.43 23.6552 145.545 24.7704C146.716 25.8855 147.301 27.2237 147.301 28.7849C147.301 30.5134 146.716 31.9631 145.545 33.134C144.43 34.305 143.008 34.8904 141.28 34.8904Z" fill="#7E57FF"/>
<path d="M101.531 80.4729V19H130.386V27.1127H110.815V44.5092H126.037V52.7055H110.815V80.4729H101.531Z" fill="#7E57FF"/>
<path d="M79.1183 81.3073C74.3231 81.3073 70.4201 80.3873 67.4091 78.5473C64.3982 76.6516 62.1958 74.1703 60.8019 71.1037C59.4079 68.037 58.7109 64.7752 58.7109 61.3182C58.7109 57.1363 59.5473 53.54 61.22 50.5291C62.9485 47.5181 65.3182 45.2042 68.3291 43.5872C71.3401 41.9145 74.7413 41.0781 78.5328 41.0781C84.6104 41.0781 89.0431 42.7787 91.831 46.18C94.6189 49.5254 96.0129 54.0418 96.0129 59.7291C96.0129 61.2345 95.9292 62.7958 95.7619 64.4127H68.1619C68.7752 67.8697 70.0019 70.3509 71.8419 71.8564C73.7376 73.3061 76.2467 74.0309 79.3692 74.0309C82.3801 74.0309 84.7498 73.7522 86.4783 73.1946C88.2068 72.637 89.6286 72.0794 90.7438 71.5218L93.5038 77.9619C92.3886 78.6867 90.6601 79.4394 88.3183 80.22C85.9765 80.9449 82.9098 81.3073 79.1183 81.3073ZM68.1619 58.14H87.231C87.2868 54.5157 86.4783 52.0345 84.8056 50.6963C83.1328 49.3581 80.9583 48.6891 78.2819 48.6891C75.494 48.6891 73.2079 49.4418 71.4237 50.9472C69.6952 52.3969 68.6079 54.7945 68.1619 58.14Z" fill="#7E57FF"/>
<path d="M16.9998 80.4729V19H30.9671C34.0895 19 37.1004 19.3067 39.9998 19.92C42.955 20.5333 45.5756 21.5649 47.8617 23.0146C50.1477 24.4643 51.9598 26.3879 53.298 28.7855C54.6362 31.1831 55.3053 34.1382 55.3053 37.651C55.3053 41.7213 54.3574 45.2619 52.4617 48.2728C50.5659 51.2837 47.6944 53.5977 43.8471 55.2146L58.4835 80.4729H47.6944L35.3162 57.2219C34.3683 57.2777 33.1974 57.3334 31.8034 57.3892C30.4652 57.3892 29.3501 57.3892 28.458 57.3892H26.1161V80.4729H16.9998ZM26.1161 49.7783H32.0543C35.121 49.7783 37.5744 49.388 39.4144 48.6073C41.3101 47.8267 42.7598 46.851 43.7635 45.6801C44.7671 44.4534 45.4362 43.1431 45.7707 41.7491C46.161 40.2994 46.3562 38.9613 46.3562 37.7346C46.3562 35.0025 45.715 32.8558 44.4326 31.2946C43.2059 29.6776 41.4774 28.5346 39.2471 27.8655C37.0725 27.1406 34.5634 26.7782 31.7198 26.7782H26.1161V49.7783Z" fill="#7E57FF"/>
</svg>
