<svg width="350" height="200" viewBox="0 0 350 200" fill="none" xmlns="http://www.w3.org/2000/svg">
<rect width="350" height="200" rx="12" fill="#F2EEFF"/>
<path d="M142.884 44.4043L191.196 48.6623L211.108 67.6598C210.89 92.4438 210.716 142.077 211.761 142.339C212.806 142.601 157.356 138.518 129.5 136.444L142.884 44.4043Z" fill="#CBBCFF"/>
<path d="M158.981 155.848C169.735 152.368 191.622 145.274 193.136 144.746L190.503 126.677L161.155 125.158L160.366 130.254L170.916 136.376L143.217 143.728L142.203 150.595L158.981 155.848Z" fill="#F87AF7"/>
<path d="M248.359 153.887L191.63 147.668L190.523 124.344L225.662 118.486L220.688 77.6872L249.218 69L263.004 142.205L248.359 153.887Z" fill="#7D57FF"/>
<rect x="148.156" y="71.166" width="41.7907" height="5.22384" transform="rotate(4 148.156 71.166)" fill="#B09BFF"/>
<rect x="143.578" y="83.6758" width="53.5444" height="5.22384" transform="rotate(4 143.578 83.6758)" fill="#B09BFF"/>
<path d="M191.172 48.6367L211.088 67.5731H191.172V48.6367Z" fill="#B09BFF"/>
<path d="M142.421 97.1154L125.674 90.7539L115.13 98.6901L116.455 116.385L142.555 123.403L142.421 97.1154Z" fill="#C1DF26"/>
<path d="M123.617 89.064L113.017 97.2842L104.183 91.4134L86.3973 70.4342L107.008 56.1465L123.264 81.7053L123.617 89.064Z" fill="#F87AF7"/>
<rect width="19.5894" height="7.83576" transform="matrix(-0.819152 0.573576 0.573576 0.819152 125.539 85.2168)" fill="#6B49E6"/>
<path d="M136.025 114.858L124.271 107.957V118.454L142.555 123.403L142.469 106.426L136.025 114.858Z" fill="#7D57FF"/>
</svg>
