<svg width="60" height="60" viewBox="0 0 60 60" fill="none" xmlns="http://www.w3.org/2000/svg">
<path d="M13.9086 13.3965L28.4758 14.6804L34.4798 20.4086C34.4142 27.8815 34.3617 42.8472 34.6767 42.9262C34.9916 43.0052 18.2722 41.774 9.87305 41.1485L13.9086 13.3965Z" fill="#CBBCFF"/>
<path d="M18.762 46.9999C22.0047 45.9504 28.6042 43.8116 29.0605 43.6524L28.2667 38.2039L19.4174 37.7461L19.1797 39.2825L22.3608 41.1287L14.009 43.3452L13.7031 45.416L18.762 46.9999Z" fill="#F87AF7"/>
<path d="M45.7229 46.4081L28.6179 44.5327L28.2842 37.4999L38.8793 35.7337L37.3795 23.4319L45.9819 20.8125L50.1389 42.8857L45.7229 46.4081Z" fill="#7D57FF"/>
<rect x="15.4951" y="21.4668" width="12.6009" height="1.57511" transform="rotate(4 15.4951 21.4668)" fill="#B09BFF"/>
<rect x="14.1201" y="25.2363" width="16.1449" height="1.57511" transform="rotate(4 14.1201 25.2363)" fill="#B09BFF"/>
<path d="M28.4756 14.6738L34.4807 20.3836H28.4756V14.6738Z" fill="#B09BFF"/>
</svg>
