<svg width="60" height="60" viewBox="0 0 60 60" fill="none" xmlns="http://www.w3.org/2000/svg">
<path d="M13.2969 15.4103V38.145L33.844 39.3832L37.0788 39.5226L46.0001 45.6071L45.4943 39.8834L43.0386 14.168L13.2969 15.4103Z" fill="#F87AF7"/>
<path d="M34.9036 28.0712C35.976 28.0712 36.8453 27.1974 36.8453 26.1196C36.8453 25.0417 35.976 24.168 34.9036 24.168C33.8313 24.168 32.9619 25.0417 32.9619 26.1196C32.9619 27.1974 33.8313 28.0712 34.9036 28.0712Z" fill="#C1DF26"/>
<path d="M28.4505 28.0712C29.5229 28.0712 30.3922 27.1974 30.3922 26.1196C30.3922 25.0417 29.5229 24.168 28.4505 24.168C27.3781 24.168 26.5088 25.0417 26.5088 26.1196C26.5088 27.1974 27.3781 28.0712 28.4505 28.0712Z" fill="#C1DF26"/>
<path d="M22.0609 28.0712C23.1332 28.0712 24.0026 27.1974 24.0026 26.1196C24.0026 25.0417 23.1332 24.168 22.0609 24.168C20.9885 24.168 20.1191 25.0417 20.1191 26.1196C20.1191 27.1974 20.9885 28.0712 22.0609 28.0712Z" fill="#C1DF26"/>
</svg>
