<svg width="350" height="200" viewBox="0 0 350 200" fill="none" xmlns="http://www.w3.org/2000/svg">
<rect width="350" height="200" rx="12" fill="#F2EEFF"/>
<path d="M238.845 57.859H169.07L180.441 38L206.909 40.1469L238.845 57.859Z" fill="#F87AF7"/>
<path d="M169.07 57.8574H238.845V161.446H179.804L169.07 57.8574Z" fill="#6B49E6"/>
<rect x="182.488" y="68.0527" width="42.9383" height="8.05093" fill="#C1DF26"/>
<rect x="182.488" y="84.1562" width="42.9383" height="8.05093" fill="#C1DF26"/>
<path d="M281.777 98.0574L200.73 105.092L213.075 81.2836L254.135 71.8145L281.777 98.0574Z" fill="#F87AF7"/>
<path d="M281.777 98.1133L200.73 105.12L202.072 161.447H281.777V98.1133Z" fill="#7D57FF"/>
<rect x="217.373" y="72.8867" width="16.1019" height="17.1753" fill="#F87AF7"/>
<path d="M268.354 136.017L257.619 129.242L246.885 136.017V161.446H268.354V136.017Z" fill="#F87AF7"/>
<rect x="214.148" y="117.434" width="19.3222" height="11.808" fill="#C1DF26"/>
<rect x="209.324" y="97.5605" width="59.0402" height="2.68364" transform="rotate(-5 209.324 97.5605)" fill="#D468D3"/>
<rect x="212.537" y="90.4648" width="48.3056" height="2.68365" transform="rotate(-7 212.537 90.4648)" fill="#D468D3"/>
<rect x="217.373" y="83.5898" width="37.571" height="2.68365" transform="rotate(-10 217.373 83.5898)" fill="#D468D3"/>
<path d="M92.7744 56.5491V95.013L127.537 97.1079L133.01 97.3437L148.104 107.638L147.248 97.9541L143.093 54.4473L92.7744 56.5491Z" fill="#F87AF7"/>
<path d="M129.333 77.9689C131.147 77.9689 132.618 76.4907 132.618 74.6671C132.618 72.8435 131.147 71.3652 129.333 71.3652C127.519 71.3652 126.048 72.8435 126.048 74.6671C126.048 76.4907 127.519 77.9689 129.333 77.9689Z" fill="#C1DF26"/>
<path d="M118.419 77.9689C120.233 77.9689 121.704 76.4907 121.704 74.6671C121.704 72.8435 120.233 71.3652 118.419 71.3652C116.605 71.3652 115.134 72.8435 115.134 74.6671C115.134 76.4907 116.605 77.9689 118.419 77.9689Z" fill="#C1DF26"/>
<path d="M107.606 77.9689C109.421 77.9689 110.891 76.4907 110.891 74.6671C110.891 72.8435 109.421 71.3652 107.606 71.3652C105.792 71.3652 104.321 72.8435 104.321 74.6671C104.321 76.4907 105.792 77.9689 107.606 77.9689Z" fill="#C1DF26"/>
<path d="M72.7485 88.5079L69.001 122.824L103.964 124.932L108.878 125.14L122.432 134.387L121.659 125.689L117.932 86.6211L72.7485 88.5079Z" fill="#7D57FF"/>
<path d="M105.573 107.74C107.2 107.74 108.52 106.414 108.52 104.778C108.52 103.143 107.2 101.816 105.573 101.816C103.945 101.816 102.626 103.143 102.626 104.778C102.626 106.414 103.945 107.74 105.573 107.74Z" fill="#583DCC"/>
<path d="M95.7604 107.74C97.3879 107.74 98.7073 106.414 98.7073 104.778C98.7073 103.143 97.3879 101.816 95.7604 101.816C94.1329 101.816 92.8135 103.143 92.8135 104.778C92.8135 106.414 94.1329 107.74 95.7604 107.74Z" fill="#583DCC"/>
<path d="M86.0573 107.74C87.6848 107.74 89.0042 106.414 89.0042 104.778C89.0042 103.143 87.6848 101.816 86.0573 101.816C84.4297 101.816 83.1104 103.143 83.1104 104.778C83.1104 106.414 84.4297 107.74 86.0573 107.74Z" fill="#583DCC"/>
</svg>
